<?xml version="1.0" encoding="utf-8"?>
<!-- Generator: Adobe Illustrator 22.1.0, SVG Export Plug-In . SVG Version: 6.00 Build 0)  -->
<svg version="1.1" id="Lager_1" xmlns="http://www.w3.org/2000/svg" xmlns:xlink="http://www.w3.org/1999/xlink" x="0px" y="0px"
	 viewBox="0 0 672.1 161.6" style="enable-background:new 0 0 672.1 161.6;" xml:space="preserve">
<style type="text/css">
	.st0{fill:#FFFFFF;}
</style>
<g>
	<path class="st0" d="M47.4,0h19.7L19.5,126H0L47.4,0z"/>
	<path class="st0" d="M91.5,5.1v25.8H78.9V5.1H91.5z"/>
	<path class="st0" d="M148.3,126h-23.6V3.7h23.6V126z"/>
	<path class="st0" d="M204.5,52.6c-4.8,0-8.7,0.7-11.8,2.2c-3.1,1.5-4.6,4.1-4.6,8v1.6c0.2,2.7,2,4.8,5.4,6.3s6.8,2.3,10.2,2.3h8
		v15.6h-7.8c-3.9,0-7.8,1.1-11.6,3.2c-3.8,2.1-5.7,4.8-5.7,8.1c0,4.4,1.6,7.4,4.9,9.2c3.2,1.8,7.1,2.7,11.5,2.7
		c5.5,0,9.7-1.2,12.7-3.6s4.7-5.5,5.4-9.4h19.6c-0.4,2.5-0.7,5-1.1,7.5c-1.7,5.8-5.2,10.9-10.7,15.3c-5.4,4.4-13.7,6.6-24.8,6.6
		c-10,0-18.7-2-26.3-6c-7.6-4-11.4-9.7-11.4-17c0-5.6,1.2-10.6,3.7-14.8s5.5-7.4,9.2-9.5c-3.8-1.9-6.7-4.3-8.6-7.1
		s-2.9-6.6-2.9-11.6c0-1.8,0.2-4.7,0.7-8.6c0.5-3.9,4.3-7.9,11.4-12.1c7.1-4.1,15-6.2,23.9-6.2c11.2,0,19.3,1.9,24.3,5.8
		c5,3.9,8.8,10.6,11.4,20.2h-20.3c-1.4-3.2-2.9-5.5-4.4-6.8C212.8,53.3,209.5,52.6,204.5,52.6z"/>
	<path class="st0" d="M333.2,45.3c7.4,7.8,11.1,19.2,11.1,34.3c0,15.9-3.6,28.1-10.8,36.4c-7.2,8.4-16.5,12.5-27.8,12.5
		c-7.2,0-13.2-1.8-18-5.4c-2.6-2-5.2-4.9-7.7-8.7v47.1h-23.4v-126h22.7V49c2.6-3.9,5.3-7,8.2-9.3c5.3-4,11.6-6.1,18.9-6.1
		C316.8,33.6,325.8,37.5,333.2,45.3z M315.1,62.3c-3.2-5.4-8.4-8-15.6-8c-8.7,0-14.6,4.1-17.9,12.2c-1.7,4.3-2.5,9.8-2.5,16.4
		c0,10.5,2.8,17.9,8.5,22.2c3.4,2.5,7.3,3.7,11.9,3.7c6.7,0,11.7-2.5,15.2-7.6c3.5-5.1,5.2-11.9,5.2-20.3
		C319.9,73.8,318.3,67.7,315.1,62.3z"/>
	<path class="st0" d="M361.5,111.5c-3.5-5.4-5.8-11.6-6.9-18.7c-0.6-4.1-0.9-10.1-0.7-17.9h61.9c-0.3-9.1-3.2-15.4-8.5-19.1
		c-3.3-2.3-7.2-3.4-11.8-3.4c-4.9,0-8.8,1.4-11.9,4.1c-1.7,1.5-3.1,3.6-4.4,6.2h-24.1c0.6-5.4,3.4-10.8,8.4-16.3
		c7.7-8.8,18.6-13.2,32.5-13.2c11.5,0,21.7,3.7,30.4,11.1s13.2,19.5,13.2,36.2c0,15.7-4,27.7-11.9,36s-18.2,12.5-30.9,12.5
		c-7.5,0-14.3-1.4-20.3-4.2S365.5,117.6,361.5,111.5z M415.2,90.5h-36.8c0.4,6.3,2.3,11,5.7,14.2c3.4,3.2,7.6,4.9,12.7,4.9
		c5.5,0,9.7-1.7,12.7-5.1C412.5,101,414.4,96.4,415.2,90.5z"/>
	<path class="st0" d="M505.7,33.5c0.3,0,1,0.1,2,0.1v24.2c-1.5-0.2-2.8-0.3-4-0.3c-1.2-0.1-2.1-0.1-2.8-0.1
		c-9.5,0-15.9,3.1-19.2,9.3c-1.8,3.5-2.7,8.8-2.7,16.1V126h-23.8V35.6h22.6v15.8c3.7-6,6.8-10.1,9.5-12.4c4.4-3.7,10.2-5.6,17.3-5.6
		C505,33.4,505.4,33.4,505.7,33.5z"/>
	<path class="st0" d="M569.5,37c4.3,2.4,7.7,5.7,10.4,10V3.9h24V126h-23v-12.5c-3.4,5.4-7.2,9.3-11.5,11.7s-9.7,3.7-16.1,3.7
		c-10.6,0-19.5-4.3-26.7-12.8c-7.2-8.5-10.8-19.5-10.8-32.9c0-15.4,3.6-27.6,10.7-36.4s16.6-13.3,28.5-13.3
		C560.4,33.4,565.3,34.6,569.5,37z M575.3,101.5c3.5-5,5.2-11.4,5.2-19.3c0-11.1-2.8-19-8.4-23.7c-3.4-2.9-7.4-4.3-11.9-4.3
		c-6.9,0-12,2.6-15.2,7.8s-4.9,11.7-4.9,19.5c0,8.4,1.6,15,4.9,20c3.3,5,8.3,7.5,15,7.5S571.9,106.4,575.3,101.5z"/>
	<path class="st0" d="M652.4,0h19.7l-47.6,126H605L652.4,0z"/>
</g>
</svg>
